<svg width="21" height="21" viewBox="0 0 21 21" fill="none" xmlns="http://www.w3.org/2000/svg">
<path d="M5.03728 3.79167H19.125L17.2083 10.5H6.06935M18.1667 14.3333H6.66667L4.75 1.875H1.875M7.625 18.1667C7.625 18.6959 7.19594 19.125 6.66667 19.125C6.13739 19.125 5.70833 18.6959 5.70833 18.1667C5.70833 17.6374 6.13739 17.2083 6.66667 17.2083C7.19594 17.2083 7.625 17.6374 7.625 18.1667ZM18.1667 18.1667C18.1667 18.6959 17.7376 19.125 17.2083 19.125C16.6791 19.125 16.25 18.6959 16.25 18.1667C16.25 17.6374 16.6791 17.2083 17.2083 17.2083C17.7376 17.2083 18.1667 17.6374 18.1667 18.1667Z" stroke="white" stroke-width="1.84" stroke-linecap="round" stroke-linejoin="round"/>
</svg>
