<svg width="84" height="16" viewBox="0 0 84 16" fill="none" xmlns="http://www.w3.org/2000/svg">
<path d="M7.49621 2.78263C7.65053 2.33868 7.72768 2.11671 7.84178 2.05519C7.94052 2.00195 8.05943 2.00195 8.15818 2.05519C8.27227 2.11671 8.34943 2.33868 8.50374 2.78263L9.52392 5.71755C9.56784 5.8439 9.5898 5.90708 9.62938 5.95413C9.66433 5.99569 9.70891 6.02808 9.75924 6.04848C9.81622 6.07158 9.88309 6.07294 10.0168 6.07567L13.1234 6.13897C13.5933 6.14855 13.8282 6.15334 13.922 6.24284C14.0031 6.3203 14.0399 6.43338 14.0198 6.54375C13.9965 6.67127 13.8092 6.81325 13.4347 7.09719L10.9587 8.97439C10.8521 9.0552 10.7988 9.09561 10.7663 9.14778C10.7375 9.19387 10.7205 9.24628 10.7167 9.30045C10.7123 9.36177 10.7317 9.42579 10.7704 9.55383L11.6702 12.5279C11.8063 12.9777 11.8743 13.2027 11.8182 13.3195C11.7696 13.4206 11.6734 13.4905 11.5622 13.5055C11.4337 13.5228 11.2408 13.3885 10.8551 13.1201L8.30461 11.3453C8.19481 11.2689 8.13991 11.2307 8.08024 11.2159C8.02753 11.2028 7.97242 11.2028 7.91971 11.2159C7.86005 11.2307 7.80515 11.2689 7.69535 11.3453L5.1449 13.1201C4.75911 13.3885 4.56622 13.5228 4.43775 13.5055C4.32657 13.4905 4.23037 13.4206 4.18178 13.3195C4.12564 13.2027 4.19369 12.9777 4.32979 12.5279L5.22955 9.55383C5.26829 9.42579 5.28765 9.36177 5.28329 9.30045C5.27944 9.24628 5.26241 9.19387 5.23369 9.14778C5.20117 9.09561 5.14787 9.0552 5.04128 8.97439L2.56525 7.0972C2.19072 6.81325 2.00345 6.67127 1.9802 6.54375C1.96008 6.43338 1.99683 6.3203 2.07798 6.24284C2.17174 6.15334 2.40669 6.14855 2.87659 6.13897L5.98313 6.07567C6.11687 6.07294 6.18374 6.07158 6.24071 6.04848C6.29104 6.02808 6.33562 5.99569 6.37058 5.95413C6.41015 5.90708 6.43211 5.8439 6.47603 5.71755L7.49621 2.78263Z" fill="#EBE100" stroke="#EBE100" stroke-width="1.33333" stroke-linecap="round" stroke-linejoin="round"/>
<path d="M24.4962 2.78263C24.6505 2.33868 24.7277 2.11671 24.8418 2.05519C24.9405 2.00195 25.0594 2.00195 25.1582 2.05519C25.2723 2.11671 25.3494 2.33868 25.5037 2.78263L26.5239 5.71755C26.5678 5.8439 26.5898 5.90708 26.6294 5.95413C26.6643 5.99569 26.7089 6.02808 26.7592 6.04848C26.8162 6.07158 26.8831 6.07294 27.0168 6.07567L30.1234 6.13897C30.5933 6.14855 30.8282 6.15334 30.922 6.24284C31.0031 6.3203 31.0399 6.43338 31.0198 6.54375C30.9965 6.67127 30.8092 6.81325 30.4347 7.09719L27.9587 8.97439C27.8521 9.0552 27.7988 9.09561 27.7663 9.14778C27.7375 9.19387 27.7205 9.24628 27.7167 9.30045C27.7123 9.36177 27.7317 9.42579 27.7704 9.55383L28.6702 12.5279C28.8063 12.9777 28.8743 13.2027 28.8182 13.3195C28.7696 13.4206 28.6734 13.4905 28.5622 13.5055C28.4337 13.5228 28.2408 13.3885 27.8551 13.1201L25.3046 11.3453C25.1948 11.2689 25.1399 11.2307 25.0802 11.2159C25.0275 11.2028 24.9724 11.2028 24.9197 11.2159C24.86 11.2307 24.8051 11.2689 24.6953 11.3453L22.1449 13.1201C21.7591 13.3885 21.5662 13.5228 21.4378 13.5055C21.3266 13.4905 21.2304 13.4206 21.1818 13.3195C21.1256 13.2027 21.1937 12.9777 21.3298 12.5279L22.2296 9.55383C22.2683 9.42579 22.2877 9.36177 22.2833 9.30045C22.2794 9.24628 22.2624 9.19387 22.2337 9.14778C22.2012 9.09561 22.1479 9.0552 22.0413 8.97439L19.5653 7.0972C19.1907 6.81325 19.0035 6.67127 18.9802 6.54375C18.9601 6.43338 18.9968 6.3203 19.078 6.24284C19.1717 6.15334 19.4067 6.14855 19.8766 6.13897L22.9831 6.07567C23.1169 6.07294 23.1837 6.07158 23.2407 6.04848C23.291 6.02808 23.3356 5.99569 23.3706 5.95413C23.4102 5.90708 23.4321 5.8439 23.476 5.71755L24.4962 2.78263Z" fill="#EBE100" stroke="#EBE100" stroke-width="1.33333" stroke-linecap="round" stroke-linejoin="round"/>
<path d="M41.4962 2.78263C41.6505 2.33868 41.7277 2.11671 41.8418 2.05519C41.9405 2.00195 42.0594 2.00195 42.1582 2.05519C42.2723 2.11671 42.3494 2.33868 42.5037 2.78263L43.5239 5.71755C43.5678 5.8439 43.5898 5.90708 43.6294 5.95413C43.6643 5.99569 43.7089 6.02808 43.7592 6.04848C43.8162 6.07158 43.8831 6.07294 44.0168 6.07567L47.1234 6.13897C47.5933 6.14855 47.8282 6.15334 47.922 6.24284C48.0031 6.3203 48.0399 6.43338 48.0198 6.54375C47.9965 6.67127 47.8092 6.81325 47.4347 7.09719L44.9587 8.97439C44.8521 9.0552 44.7988 9.09561 44.7663 9.14778C44.7375 9.19387 44.7205 9.24628 44.7167 9.30045C44.7123 9.36177 44.7317 9.42579 44.7704 9.55383L45.6702 12.5279C45.8063 12.9777 45.8743 13.2027 45.8182 13.3195C45.7696 13.4206 45.6734 13.4905 45.5622 13.5055C45.4337 13.5228 45.2408 13.3885 44.8551 13.1201L42.3046 11.3453C42.1948 11.2689 42.1399 11.2307 42.0802 11.2159C42.0275 11.2028 41.9724 11.2028 41.9197 11.2159C41.86 11.2307 41.8051 11.2689 41.6953 11.3453L39.1449 13.1201C38.7591 13.3885 38.5662 13.5228 38.4378 13.5055C38.3266 13.4905 38.2304 13.4206 38.1818 13.3195C38.1256 13.2027 38.1937 12.9777 38.3298 12.5279L39.2296 9.55383C39.2683 9.42579 39.2877 9.36177 39.2833 9.30045C39.2794 9.24628 39.2624 9.19387 39.2337 9.14778C39.2012 9.09561 39.1479 9.0552 39.0413 8.97439L36.5653 7.0972C36.1907 6.81325 36.0035 6.67127 35.9802 6.54375C35.9601 6.43338 35.9968 6.3203 36.078 6.24284C36.1717 6.15334 36.4067 6.14855 36.8766 6.13897L39.9831 6.07567C40.1169 6.07294 40.1837 6.07158 40.2407 6.04848C40.291 6.02808 40.3356 5.99569 40.3706 5.95413C40.4102 5.90708 40.4321 5.8439 40.476 5.71755L41.4962 2.78263Z" fill="#EBE100" stroke="#EBE100" stroke-width="1.33333" stroke-linecap="round" stroke-linejoin="round"/>
<path d="M58.4962 2.78263C58.6505 2.33868 58.7277 2.11671 58.8418 2.05519C58.9405 2.00195 59.0594 2.00195 59.1582 2.05519C59.2723 2.11671 59.3494 2.33868 59.5037 2.78263L60.5239 5.71755C60.5678 5.8439 60.5898 5.90708 60.6294 5.95413C60.6643 5.99569 60.7089 6.02808 60.7592 6.04848C60.8162 6.07158 60.8831 6.07294 61.0168 6.07567L64.1234 6.13897C64.5933 6.14855 64.8282 6.15334 64.922 6.24284C65.0031 6.3203 65.0399 6.43338 65.0198 6.54375C64.9965 6.67127 64.8092 6.81325 64.4347 7.09719L61.9587 8.97439C61.8521 9.0552 61.7988 9.09561 61.7663 9.14778C61.7375 9.19387 61.7205 9.24628 61.7167 9.30045C61.7123 9.36177 61.7317 9.42579 61.7704 9.55383L62.6702 12.5279C62.8063 12.9777 62.8743 13.2027 62.8182 13.3195C62.7696 13.4206 62.6734 13.4905 62.5622 13.5055C62.4337 13.5228 62.2408 13.3885 61.8551 13.1201L59.3046 11.3453C59.1948 11.2689 59.1399 11.2307 59.0802 11.2159C59.0275 11.2028 58.9724 11.2028 58.9197 11.2159C58.86 11.2307 58.8051 11.2689 58.6953 11.3453L56.1449 13.1201C55.7591 13.3885 55.5662 13.5228 55.4378 13.5055C55.3266 13.4905 55.2304 13.4206 55.1818 13.3195C55.1256 13.2027 55.1937 12.9777 55.3298 12.5279L56.2296 9.55383C56.2683 9.42579 56.2877 9.36177 56.2833 9.30045C56.2794 9.24628 56.2624 9.19387 56.2337 9.14778C56.2012 9.09561 56.1479 9.0552 56.0413 8.97439L53.5653 7.0972C53.1907 6.81325 53.0035 6.67127 52.9802 6.54375C52.9601 6.43338 52.9968 6.3203 53.078 6.24284C53.1717 6.15334 53.4067 6.14855 53.8766 6.13897L56.9831 6.07567C57.1169 6.07294 57.1837 6.07158 57.2407 6.04848C57.291 6.02808 57.3356 5.99569 57.3706 5.95413C57.4102 5.90708 57.4321 5.8439 57.476 5.71755L58.4962 2.78263Z" fill="#EBE100" stroke="#EBE100" stroke-width="1.33333" stroke-linecap="round" stroke-linejoin="round"/>
<path d="M75.4962 2.78263C75.6505 2.33868 75.7277 2.11671 75.8418 2.05519C75.9405 2.00195 76.0594 2.00195 76.1582 2.05519C76.2723 2.11671 76.3494 2.33868 76.5037 2.78263L77.5239 5.71755C77.5678 5.8439 77.5898 5.90708 77.6294 5.95413C77.6643 5.99569 77.7089 6.02808 77.7592 6.04848C77.8162 6.07158 77.8831 6.07294 78.0168 6.07567L81.1234 6.13897C81.5933 6.14855 81.8282 6.15334 81.922 6.24284C82.0031 6.3203 82.0399 6.43338 82.0198 6.54375C81.9965 6.67127 81.8092 6.81325 81.4347 7.09719L78.9587 8.97439C78.8521 9.0552 78.7988 9.09561 78.7663 9.14778C78.7375 9.19387 78.7205 9.24628 78.7167 9.30045C78.7123 9.36177 78.7317 9.42579 78.7704 9.55383L79.6702 12.5279C79.8063 12.9777 79.8743 13.2027 79.8182 13.3195C79.7696 13.4206 79.6734 13.4905 79.5622 13.5055C79.4337 13.5228 79.2408 13.3885 78.8551 13.1201L76.3046 11.3453C76.1948 11.2689 76.1399 11.2307 76.0802 11.2159C76.0275 11.2028 75.9724 11.2028 75.9197 11.2159C75.86 11.2307 75.8051 11.2689 75.6953 11.3453L73.1449 13.1201C72.7591 13.3885 72.5662 13.5228 72.4378 13.5055C72.3266 13.4905 72.2304 13.4206 72.1818 13.3195C72.1256 13.2027 72.1937 12.9777 72.3298 12.5279L73.2296 9.55383C73.2683 9.42579 73.2877 9.36177 73.2833 9.30045C73.2794 9.24628 73.2624 9.19387 73.2337 9.14778C73.2012 9.09561 73.1479 9.0552 73.0413 8.97439L70.5653 7.0972C70.1907 6.81325 70.0035 6.67127 69.9802 6.54375C69.9601 6.43338 69.9968 6.3203 70.078 6.24284C70.1717 6.15334 70.4067 6.14855 70.8766 6.13897L73.9831 6.07567C74.1169 6.07294 74.1837 6.07158 74.2407 6.04848C74.291 6.02808 74.3356 5.99569 74.3706 5.95413C74.4102 5.90708 74.4321 5.8439 74.476 5.71755L75.4962 2.78263Z" fill="#EBE100" stroke="#EBE100" stroke-width="1.33333" stroke-linecap="round" stroke-linejoin="round"/>
</svg>
